<?xml version="1.0" encoding="UTF-8"?>
<svg width="151px" height="32px" viewBox="0 0 151 32" version="1.1" xmlns="http://www.w3.org/2000/svg" xmlns:xlink="http://www.w3.org/1999/xlink">
    <!-- Generator: Sketch 49.2 (51160) - http://www.bohemiancoding.com/sketch -->
    <title>logo orange </title>
    <desc>Created with Sketch.</desc>
    <defs></defs>
    <g id="Page-1" stroke="none" stroke-width="1" fill="none" fill-rule="evenodd">
        <g id="Desktop-Copy-6" transform="translate(-240.000000, -121.000000)" fill="#EE6C4D">
            <g id="logo-orange-" transform="translate(240.000000, 121.000000)">
                <path d="M14.9337261,30.4698085 L8.61561119,30.4698085 L8.61561119,6.52282769 L0,6.52282769 L0,1 L23.5051546,1 L23.5051546,6.52282769 L14.9337261,6.52282769 L14.9337261,30.4698085 Z M52.8586156,30.4698085 L45.6568483,30.4698085 L39.8689249,19.9985272 L35.2739323,19.9985272 L35.2739323,30.4698085 L29,30.4698085 L29,1 L42.7849779,1 C48.9263623,1 52.6818851,5.02061856 52.6818851,10.4992636 C52.6818851,15.712813 49.4123711,18.4963181 46.2312224,19.2474227 L52.8586156,30.4698085 Z M41.8831984,14.4756996 C44.4016078,14.4756996 46.3014605,12.9734904 46.3014605,10.4992636 C46.3014605,8.02503682 44.4016078,6.52282769 41.8831984,6.52282769 L35.2999878,6.52282769 L35.2999878,14.4756996 L41.8831984,14.4756996 Z M70.2989691,31 C61.3298969,31 57,25.9631811 57,18.7172312 L57,1 L63.3622975,1 L63.3622975,18.4963181 C63.3622975,22.6053019 65.7481591,25.4329897 70.2989691,25.4329897 C74.8497791,25.4329897 77.191458,22.6053019 77.191458,18.4963181 L77.191458,1 L83.5979381,1 L83.5979381,18.6730486 C83.5979381,26.0073638 79.2680412,31 70.2989691,31 Z M110.917526,30.4698085 L90.0633284,30.4698085 L90.0633284,1 L110.917526,1 L110.917526,6.52282769 L96.3372607,6.52282769 L96.3372607,12.7525773 L110.608247,12.7525773 L110.608247,18.275405 L96.3372607,18.275405 L96.3372607,24.9469809 L110.917526,24.9469809 L110.917526,30.4698085 Z" id="TRUE"></path>
                <path d="M119,0 L151,0 L151,32 L119,32 L119,0 Z M122,3 L122,29 L148,29 L148,3 L122,3 Z" id="Combined-Shape"></path>
                <path d="M143.332012,23.7080008 L139.444012,23.7080008 L138.460012,20.9960008 L131.596012,20.9960008 L130.588012,23.7080008 L126.700012,23.7080008 L132.892012,7.70000076 L137.164012,7.70000076 L143.332012,23.7080008 Z M137.524012,17.9960008 L135.028012,11.1080008 L132.532012,17.9960008 L137.524012,17.9960008 Z" id="A"></path>
            </g>
        </g>
    </g>
</svg>